HIERARCHY
ROOT hip
{
  OFFSET 0 0 0
  CHANNELS 6 Xposition Yposition Zposition Zrotation Yrotation Xrotation
  JOINT abdomen
  {
    OFFSET 0 20.6881 -0.73152
    CHANNELS 3 Zrotation Xrotation Yrotation
    JOINT chest
    {
      OFFSET 0 11.7043 -0.48768
      CHANNELS 3 Zrotation Xrotation Yrotation
      JOINT neck
      {
        OFFSET 0 22.1894 -2.19456
        CHANNELS 3 Zrotation Xrotation Yrotation
        JOINT head
        {
          OFFSET -0.24384 7.07133 1.2192
          CHANNELS 3 Zrotation Xrotation Yrotation
          JOINT leftEye
          {
            OFFSET 4.14528 8.04674 8.04672
            CHANNELS 3 Zrotation Xrotation Yrotation
            End Site
            {
              OFFSET 1 0 0
            }
          }
          JOINT rightEye
          {
            OFFSET -3.6576 8.04674 8.04672
            CHANNELS 3 Zrotation Xrotation Yrotation
            End Site
            {
              OFFSET 1 0 0
            }
          }
        }
      }
      JOINT rCollar
      {
        OFFSET -2.68224 19.2634 -4.8768
        CHANNELS 3 Zrotation Xrotation Yrotation
        JOINT rShldr
        {
          OFFSET -8.77824 -1.95073 1.46304
          CHANNELS 3 Zrotation Xrotation Yrotation
          JOINT rForeArm
          {
            OFFSET -28.1742 -1.7115 0.48768
            CHANNELS 3 Zrotation Xrotation Yrotation
            JOINT rHand
            {
              OFFSET -22.5879 0.773209 7.07136
              CHANNELS 3 Zrotation Xrotation Yrotation
              JOINT rThumb1
              {
                OFFSET -1.2192 -0.487915 3.41376
                CHANNELS 3 Zrotation Xrotation Yrotation
                JOINT rThumb2
                {
                  OFFSET -3.37035 -0.52449 3.41376
                  CHANNELS 3 Zrotation Xrotation Yrotation
                  End Site
                  {
                    OFFSET -1.78271 -1.18214 1.43049
                  }
                }
              }
              JOINT rIndex1
              {
                OFFSET -7.75947 0.938293 5.60832
                CHANNELS 3 Zrotation Xrotation Yrotation
                JOINT rIndex2
                {
                  OFFSET -2.54057 -0.884171 1.56538
                  CHANNELS 3 Zrotation Xrotation Yrotation
                  End Site
                  {
                    OFFSET -1.62519 -0.234802 1.16502
                  }
                }
              }
              JOINT rMid1
              {
                OFFSET -8.24714 1.18213 3.41376
                CHANNELS 3 Zrotation Xrotation Yrotation
                JOINT rMid2
                {
                  OFFSET -3.10165 -0.590103 1.0647
                  CHANNELS 3 Zrotation Xrotation Yrotation
                  End Site
                  {
                    OFFSET -2.48547 -0.328903 0.83742
                  }
                }
              }
              JOINT rRing1
              {
                OFFSET -8.82822 0.546677 1.51678
                CHANNELS 3 Zrotation Xrotation Yrotation
                JOINT rRing2
                {
                  OFFSET -2.60934 -0.819778 -0.0198488
                  CHANNELS 3 Zrotation Xrotation Yrotation
                  End Site
                  {
                    OFFSET -2.33842 -0.294052 0.168128
                  }
                }
              }
              JOINT rPinky1
              {
                OFFSET -8.27202 -0.0477905 -0.4584
                CHANNELS 3 Zrotation Xrotation Yrotation
                JOINT rPinky2
                {
                  OFFSET -1.82734 -0.647385 -0.700984
                  CHANNELS 3 Zrotation Xrotation Yrotation
                  End Site
                  {
                    OFFSET -1.69225 -0.51767 -0.607171
                  }
                }
              }
            }
          }
        }
      }
      JOINT lCollar
      {
        OFFSET 2.68224 19.2634 -4.8768
        CHANNELS 3 Zrotation Xrotation Yrotation
        JOINT lShldr
        {
          OFFSET 8.77824 -1.95073 1.46304
          CHANNELS 3 Zrotation Xrotation Yrotation
          JOINT lForeArm
          {
            OFFSET 28.1742 -1.7115 0.48768
            CHANNELS 3 Zrotation Xrotation Yrotation
            JOINT lHand
            {
              OFFSET 22.5879 0.773209 7.07136
              CHANNELS 3 Zrotation Xrotation Yrotation
              JOINT lThumb1
              {
                OFFSET 1.2192 -0.487915 3.41376
                CHANNELS 3 Zrotation Xrotation Yrotation
                JOINT lThumb2
                {
                  OFFSET 3.37035 -0.52449 3.41376
                  CHANNELS 3 Zrotation Xrotation Yrotation
                  End Site
                  {
                    OFFSET 1.78271 -1.18214 1.43049
                  }
                }
              }
              JOINT lIndex1
              {
                OFFSET 7.75947 0.938293 5.60832
                CHANNELS 3 Zrotation Xrotation Yrotation
                JOINT lIndex2
                {
                  OFFSET 2.54057 -0.884171 1.56538
                  CHANNELS 3 Zrotation Xrotation Yrotation
                  End Site
                  {
                    OFFSET 1.62519 -0.234802 1.16502
                  }
                }
              }
              JOINT lMid1
              {
                OFFSET 8.24714 1.18213 3.41376
                CHANNELS 3 Zrotation Xrotation Yrotation
                JOINT lMid2
                {
                  OFFSET 3.10165 -0.590103 1.0647
                  CHANNELS 3 Zrotation Xrotation Yrotation
                  End Site
                  {
                    OFFSET 2.48547 -0.328903 0.83742
                  }
                }
              }
              JOINT lRing1
              {
                OFFSET 8.82822 0.546677 1.51678
                CHANNELS 3 Zrotation Xrotation Yrotation
                JOINT lRing2
                {
                  OFFSET 2.60934 -0.819778 -0.0198488
                  CHANNELS 3 Zrotation Xrotation Yrotation
                  End Site
                  {
                    OFFSET 2.33842 -0.294052 0.168128
                  }
                }
              }
              JOINT lPinky1
              {
                OFFSET 8.27202 -0.0477905 -0.4584
                CHANNELS 3 Zrotation Xrotation Yrotation
                JOINT lPinky2
                {
                  OFFSET 1.82734 -0.647385 -0.700984
                  CHANNELS 3 Zrotation Xrotation Yrotation
                  End Site
                  {
                    OFFSET 1.69225 -0.51767 -0.607171
                  }
                }
              }
            }
          }
        }
      }
    }
  }
  JOINT rButtock
  {
    OFFSET -8.77824 4.35084 1.2192
    CHANNELS 3 Zrotation Xrotation Yrotation
    JOINT rThigh
    {
      OFFSET 0 -1.70687 -2.19456
      CHANNELS 3 Zrotation Xrotation Yrotation
      JOINT rShin
      {
        OFFSET 0 -36.8199 0.73152
        CHANNELS 3 Zrotation Xrotation Yrotation
        JOINT rFoot
        {
          OFFSET 0.73152 -45.1104 -5.12064
          CHANNELS 3 Zrotation Xrotation Yrotation
          End Site
          {
            OFFSET -1.1221 -3.69964 12.103
          }
        }
      }
    }
  }
  JOINT lButtock
  {
    OFFSET 8.77824 4.35084 1.2192
    CHANNELS 3 Zrotation Xrotation Yrotation
    JOINT lThigh
    {
      OFFSET 0 -1.70687 -2.19456
      CHANNELS 3 Zrotation Xrotation Yrotation
      JOINT lShin
      {
        OFFSET 0 -36.8199 0.73152
        CHANNELS 3 Zrotation Xrotation Yrotation
        JOINT lFoot
        {
          OFFSET -0.73152 -45.1104 -5.12064
          CHANNELS 3 Zrotation Xrotation Yrotation
          End Site
          {
            OFFSET 1.1221 -3.69964 12.103
          }
        }
      }
    }
  }
}
MOTION
Frames:	4
Frame Time:	0.03333
2.1933000169228762 70.66400146484375 -0.2730000269366428 4.2861998453736305 -67.87010192871094 355.48200130462646 -10.029499679803848 11.720100045204163 4.951980113983154 0.6656969944015145 -8.953109756112099 1.1765000224113464 0.4372449964284897 15.292299538850784 14.042199701070786 1.3764599617570639 -19.66599941253662 27.512699961662292 0.0 0.0 0.0 0.0 0.0 0.0 0.0 0.0 0.0 110.09100079536438 40.2879998087883 -53.59560012817383 -28.130798935890198 -39.65729981660843 83.31089794635773 -8.248750269412994 -60.17310082912445 -14.18939933180809 -1.3915268937125802e-09 4.348521542851813e-10 5.013589543523267e-10 -2.4147084332071245e-09 7.827338777133264e-10 8.031975085032173e-10 -1.3915268937125802e-09 4.348521542851813e-10 5.013589543523267e-10 7.7309102565050125 5.474880114197731 0.41731400415301323 -1.3915268937125802e-09 4.348521542851813e-10 5.013589543523267e-10 2.905540131032467 0.9651830233633518 0.102901995414868 -1.3915268937125802e-09 4.348521542851813e-10 5.013589543523267e-10 10.27859978377819 0.7318009994924068 0.025912300043273717 -1.3915268937125802e-09 4.348521542851813e-10 5.013589543523267e-10 2.221670038998127 -0.733487019315362 -0.2089200052432716 0.0 0.0 0.0 -69.0144020318985 -9.548310041427612 -8.904829993844032 25.47529935836792 -47.22230136394501 -98.20469498634338 10.006499737501144 -63.248398303985596 16.185599863529205 -3.885531896230532e-09 8.298002285300754e-09 1.7854517864179797e-09 -6.760672022210201e-09 1.3679937183042057e-08 2.8546764951897785e-09 -3.885531896230532e-09 8.298002285300754e-09 1.7854517864179797e-09 -7.7309102565050125 5.474880114197731 -0.41731400415301323 -3.885531896230532e-09 8.298002285300754e-09 1.7854517864179797e-09 -2.905540131032467 0.9651830233633518 -0.102901995414868 -3.885531896230532e-09 8.298002285300754e-09 1.7854517864179797e-09 -10.27859978377819 0.7318009994924068 -0.025912300043273717 -3.885531896230532e-09 8.298002285300754e-09 1.7854517864179797e-09 -2.221670038998127 -0.733487019315362 0.2089200052432716 0.0 0.0 0.0 -27.092598974704742 -57.294098138809204 -21.53430014848709 -2.09624994546175 70.37409961223602 2.5891499407589436 3.8029200956225395 -8.6667899787426 15.119099915027618 0.0 0.0 0.0 7.8918300569057465 -7.99112007021904 17.78300017118454 0.6072700163349509 58.68519902229309 -2.7783499471843243 22.687998712062836 -29.5221009850502 33.012700974941254
2.1423000178765506 70.56749725341797 -0.2880000266013667 4.314600080251694 -67.8564977645874 355.49399614334106 -10.00620000064373 11.72290027141571 5.036399960517883 0.6803120160475373 -8.890649825334549 1.2020499911159277 0.40481298230588436 15.290299952030182 14.030300080776215 1.4434700086712837 -19.822200536727905 27.502400279045105 0.0 0.0 0.0 0.0 0.0 0.0 0.0 0.0 0.0 110.10599970817566 40.31450003385544 -53.56280207633972 -28.12740057706833 -39.67980086803436 83.3502995967865 -8.486080169677734 -60.631699562072754 -14.462299346923828 -6.24140739091672e-10 1.5859313862165436e-10 1.8417267710901797e-10 -1.0768985703180078e-09 3.2230218494078144e-10 2.864908310584724e-10 -6.24140739091672e-10 1.5859313862165436e-10 1.8417267710901797e-10 7.7309102565050125 5.474880114197731 0.41731400415301323 -6.24140739091672e-10 1.5859313862165436e-10 1.8417267710901797e-10 2.905540131032467 0.9651830233633518 0.102901995414868 -6.24140739091672e-10 1.5859313862165436e-10 1.8417267710901797e-10 10.27859978377819 0.7318009994924068 0.025912300043273717 -6.24140739091672e-10 1.5859313862165436e-10 1.8417267710901797e-10 2.221670038998127 -0.733487019315362 -0.2089200052432716 0.0 0.0 0.0 -68.9436024427414 -9.561450183391571 -9.272409975528717 25.486299097537994 -47.203901410102844 -98.16330313682556 11.255499869585037 -65.04299998283386 17.57329970598221 -2.1947244022157975e-09 6.021423359925393e-09 1.6115109247039072e-09 -3.849720542348223e-09 9.991367733164225e-09 2.6398083718959242e-09 -2.1947244022157975e-09 6.021423359925393e-09 1.6115109247039072e-09 -7.7309102565050125 5.474880114197731 -0.41731400415301323 -2.1947244022157975e-09 6.021423359925393e-09 1.6115109247039072e-09 -2.905540131032467 0.9651830233633518 -0.102901995414868 -2.1947244022157975e-09 6.021423359925393e-09 1.6115109247039072e-09 -10.27859978377819 0.7318009994924068 -0.025912300043273717 -2.1947244022157975e-09 6.021423359925393e-09 1.6115109247039072e-09 -2.221670038998127 -0.733487019315362 0.2089200052432716 0.0 0.0 0.0 -27.44820088148117 -57.37230062484741 -21.941400468349457 -2.132239993661642 70.60439944267273 2.6251500472426414 3.8942399248480797 -8.813190311193466 15.255999863147736 0.0 0.0 0.0 7.991510331630707 -8.106310218572617 17.8997004032135 0.6178649934008718 58.91689896583557 -2.792350072413683 22.760901153087616 -29.53259915113449 33.084699511528015
2.0791000209283084 70.4894027709961 -0.3110000266460702 4.241300001740456 -67.75320053100586 355.55699586868286 -9.915250316262245 11.758899539709091 5.0469400361180305 0.6922040088102221 -8.810660317540169 1.2073699850589037 0.38566599134355783 15.307999849319458 14.01969999074936 1.43991993740201 -19.99789997935295 27.493699193000793 0.0 0.0 0.0 0.0 0.0 0.0 0.0 0.0 0.0 110.14999866485596 40.618700087070465 -53.61219763755798 -28.123801052570343 -39.70229923725128 83.38989973068237 -8.430030047893524 -60.5255001783371 -14.398000091314316 2.7114310796605423e-10 -1.1254996934439987e-10 -1.1254996934439987e-10 4.706635081674904e-10 -1.6370904631912708e-10 -1.8417267710901797e-10 2.7114310796605423e-10 -1.1254996934439987e-10 -1.1254996934439987e-10 7.7309102565050125 5.474880114197731 0.41731400415301323 2.7114310796605423e-10 -1.1254996934439987e-10 -1.1254996934439987e-10 2.905540131032467 0.9651830233633518 0.102901995414868 2.7114310796605423e-10 -1.1254996934439987e-10 -1.1254996934439987e-10 10.27859978377819 0.7318009994924068 0.025912300043273717 2.7114310796605423e-10 -1.1254996934439987e-10 -1.1254996934439987e-10 2.221670038998127 -0.733487019315362 -0.2089200052432716 0.0 0.0 0.0 -68.8739025592804 -9.603440165519714 -9.588429853320122 25.534098744392395 -47.123199105262756 -97.98199653625488 11.350400447845459 -65.16630113124847 17.67760008573532 -7.418066161335446e-11 1.6473222785862163e-09 7.008793545537628e-10 -1.6370904631912708e-10 2.793285602820106e-09 1.192006493511144e-09 -7.418066161335446e-11 1.6473222785862163e-09 7.008793545537628e-10 -7.7309102565050125 5.474880114197731 -0.41731400415301323 -7.418066161335446e-11 1.6473222785862163e-09 7.008793545537628e-10 -2.905540131032467 0.9651830233633518 -0.102901995414868 -7.418066161335446e-11 1.6473222785862163e-09 7.008793545537628e-10 -10.27859978377819 0.7318009994924068 -0.025912300043273717 -7.418066161335446e-11 1.6473222785862163e-09 7.008793545537628e-10 -2.221670038998127 -0.733487019315362 0.2089200052432716 0.0 0.0 0.0 -27.847099006175995 -57.36859917640686 -22.49259978532791 -2.164849955588579 70.80950260162354 2.658299971371889 3.9720099046826363 -8.895860016345978 15.407799482345581 0.0 0.0 0.0 8.15165027976036 -8.187489956617355 17.968399822711945 0.6276530027389526 59.12489891052246 -2.8046900779008865 22.799999713897705 -29.58359867334366 33.091600835323334
2.004500017268583 70.41329956054688 -0.3280000275699422 4.023999832570553 -67.63069868087769 355.75599431991577 -9.7564896941185 11.827899366617203 4.9835798889398575 0.7014549896121025 -8.713129833340645 1.1924600042402744 0.37981399800628424 15.34540057182312 14.01039943099022 1.3658300321549177 -20.192999839782715 27.48670130968094 0.0 0.0 0.0 0.0 0.0 0.0 0.0 0.0 0.0 110.22600173950195 41.20130002498627 -53.751001954078674 -28.120300769805908 -39.72449988126755 83.42949986457825 -8.088110089302063 -59.85379993915558 -14.003999680280685 1.2892087397631258e-09 -3.836930773104541e-10 -3.888089850079268e-10 2.233093709946843e-09 -6.752998160663992e-10 -6.087930159992538e-10 1.2892087397631258e-09 -3.836930773104541e-10 -3.888089850079268e-10 7.7309102565050125 5.474880114197731 0.41731400415301323 1.2892087397631258e-09 -3.836930773104541e-10 -3.888089850079268e-10 2.905540131032467 0.9651830233633518 0.102901995414868 1.2892087397631258e-09 -3.836930773104541e-10 -3.888089850079268e-10 10.27859978377819 0.7318009994924068 0.025912300043273717 1.2892087397631258e-09 -3.836930773104541e-10 -3.888089850079268e-10 2.221670038998127 -0.733487019315362 -0.2089200052432716 0.0 0.0 0.0 -68.8056993484497 -9.67434972524643 -9.852960035204887 25.616799294948578 -46.9789981842041 -97.66319990158081 10.251899734139442 -63.621697425842285 16.45979940891266 2.476099325576797e-09 -4.814069143321831e-09 -9.464429240324534e-10 4.2948045120283496e-09 -7.909193300292827e-09 -1.4836132322670892e-09 2.476099325576797e-09 -4.814069143321831e-09 -9.464429240324534e-10 -7.7309102565050125 5.474880114197731 -0.41731400415301323 2.476099325576797e-09 -4.814069143321831e-09 -9.464429240324534e-10 -2.905540131032467 0.9651830233633518 -0.102901995414868 2.476099325576797e-09 -4.814069143321831e-09 -9.464429240324534e-10 -10.27859978377819 0.7318009994924068 -0.025912300043273717 2.476099325576797e-09 -4.814069143321831e-09 -9.464429240324534e-10 -2.221670038998127 -0.733487019315362 0.2089200052432716 0.0 0.0 0.0 -28.28539878129959 -57.2814005613327 -23.184000849723816 -2.1938499994575977 70.98919987678528 2.688379939645529 4.035790152847767 -8.914880231022835 15.574300289154053 0.0 0.0 0.0 8.371899873018265 -8.234810158610344 17.98879936337471 0.6365679949522018 59.309102296829224 -2.815289832651615 22.804999351501465 -29.675198793411255 33.0336007475853
